<?xml version="1.0" encoding="utf-8"?>
<!-- Generator: Adobe Illustrator 16.0.0, SVG Export Plug-In . SVG Version: 6.00 Build 0)  -->
<!DOCTYPE svg PUBLIC "-//W3C//DTD SVG 1.1//EN" "http://www.w3.org/Graphics/SVG/1.1/DTD/svg11.dtd">
<svg version="1.1" id="Layer_1" xmlns="http://www.w3.org/2000/svg" xmlns:xlink="http://www.w3.org/1999/xlink" x="0px" y="0px"
	 width="1050px" height="400px" viewBox="0 0 1050 400" enable-background="new 0 0 1050 400" xml:space="preserve">
<g>
	<path fill="#FFFFFF" d="M524,2c12.131,0,22,9.869,22,22s-9.869,22-22,22s-22-9.869-22-22S511.869,2,524,2 M524,0
		c-13.254,0-24,10.745-24,24s10.746,24,24,24c13.256,0,24-10.745,24-24S537.256,0,524,0L524,0z"/>
	<g>
		<path fill="#FFFFFF" d="M524,23.145c-5.52,0-10,4.655-10,10.393c0,1.915,1.492,3.464,3.334,3.464h13.332
			c1.844,0,3.334-1.549,3.334-3.464C534,27.8,529.521,23.145,524,23.145z"/>
		<path fill="#FFFFFF" d="M529,16.195c0,2.869-2.238,5.196-5,5.196c-2.76,0-5-2.327-5-5.196s2.24-5.197,5-5.197
			C526.762,10.998,529,13.326,529,16.195z"/>
	</g>
</g>
<g>
	<path fill="#FFFFFF" d="M324,2c12.131,0,22,9.869,22,22s-9.869,22-22,22s-22-9.869-22-22S311.869,2,324,2 M324,0
		c-13.255,0-24,10.745-24,24s10.745,24,24,24s24-10.745,24-24S337.255,0,324,0L324,0z"/>
	<path fill="#FFFFFF" d="M324.008,12.618c-3.047,0-5.515,2.471-5.515,5.526c0,3.047,2.469,5.519,5.515,5.519
		c3.033,0,5.498-2.472,5.498-5.519C329.506,15.089,327.041,12.618,324.008,12.618z"/>
	<path fill="#FFFFFF" d="M333.109,29.4c-1.351-2.768-3.443-4.451-8.582-4.451H324h-0.527c-5.14,0-7.232,1.684-8.582,4.451
		c-0.275,0.563-0.806,3.762-1.338,7.358c1.056,0.866,2.228,1.59,3.478,2.175l0.894-6.285l0.194,6.748
		c1.831,0.702,3.808,1.103,5.882,1.103c2.074,0,4.052-0.401,5.882-1.103l0.194-6.748l0.894,6.285c1.25-0.586,2.422-1.31,3.478-2.176
		C333.914,33.162,333.384,29.963,333.109,29.4z"/>
</g>
<g>
	<g>
		<path fill-rule="evenodd" clip-rule="evenodd" fill="#FFFFFF" d="M425,250c-41.422,0-75-33.578-75-75s33.578-75,75-75
			c41.421,0,75,33.578,75,75S466.421,250,425,250z M471.06,155.514c-2.919,1.75-6.297,2.819-9.948,2.819
			c-10.738,0-19.445-8.706-19.445-19.444c0-3.652,1.068-7.029,2.82-9.948C438.498,126.404,431.914,125,425,125
			c-27.614,0-50,22.386-50,50s22.386,50,50,50c27.615,0,50-22.386,50-50C475,168.087,473.596,161.502,471.06,155.514z"/>
		<path fill="#FFFFFF" d="M402.543,147.985c0-2.66,1.869-3.748,4.152-2.418l50.047,27.015c2.285,1.33,2.285,3.506,0,4.836
			l-50.047,27.014c-2.283,1.33-4.152,0.242-4.152-2.417V147.985z"/>
	</g>
	<g>
		<path fill="#FFFFFF" d="M425,252c40.252,0,73,32.748,73,73c0,40.253-32.748,73.001-73,73.001S352,365.253,352,325
			C352,284.748,384.748,252,425,252 M425,250c-41.422,0-75,33.579-75,75c0,41.423,33.578,75.001,75,75.001
			c41.421,0,75-33.578,75-75.001C500,283.579,466.421,250,425,250L425,250z"/>
		<path fill="#FFFFFF" d="M471.06,305.514c-2.919,1.751-6.297,2.819-9.948,2.819c-10.738,0-19.445-8.705-19.445-19.444
			c0-3.652,1.068-7.029,2.82-9.948C438.498,276.405,431.914,275,425,275c-27.614,0-50,22.386-50,50
			c0,27.614,22.386,50.001,50,50.001c27.615,0,50-22.387,50-50.001C475,318.087,473.596,311.502,471.06,305.514z M456.742,327.418
			l-50.047,27.015c-2.283,1.33-4.152,0.242-4.152-2.418v-54.029c0-2.66,1.869-3.748,4.152-2.418l50.047,27.015
			C459.027,323.912,459.027,326.088,456.742,327.418z"/>
	</g>
</g>
<path fill="#FFFFFF" d="M750,104.28c0-3.812,2.673-5.373,5.94-3.466l71.598,38.729c3.268,1.907,3.268,5.026,0,6.933l-71.598,38.729
	c-3.268,1.906-5.94,0.348-5.94-3.466V104.28z"/>
<g>
	<path fill="#FFFFFF" d="M150,105c38.73,0,75.143,15.083,102.529,42.47S295,211.27,295,250c0,38.731-15.084,75.144-42.471,102.531
		c-27.387,27.387-63.799,42.47-102.529,42.47c-38.732,0-75.145-15.083-102.531-42.47C20.082,325.144,5,288.731,5,250
		c0-38.73,15.082-75.144,42.469-102.53S111.268,105,150,105 M150,100C67.156,100,0,167.157,0,250s67.156,150.001,150,150.001
		c82.842,0,150-67.158,150-150.001S232.842,100,150,100L150,100z"/>
	<path fill-rule="evenodd" clip-rule="evenodd" fill="#FFFFFF" d="M150,342.501c-51.086,0-92.5-41.414-92.5-92.5
		c0-51.087,41.414-92.501,92.5-92.501s92.5,41.414,92.5,92.501C242.5,301.087,201.086,342.501,150,342.501z M205.271,226.617
		c-3.502,2.102-7.557,3.384-11.938,3.384c-12.887,0-23.334-10.447-23.334-23.335c0-4.381,1.281-8.434,3.385-11.937
		c-7.188-3.044-15.09-4.729-23.385-4.729c-33.137,0-60,26.862-60,60C90,283.138,116.863,310,150,310s60-26.862,60-59.999
		C210,241.705,208.314,233.804,205.271,226.617z"/>
</g>
<g>
	<path fill="#FFFFFF" d="M474,2c12.131,0,22,9.869,22,22s-9.869,22-22,22s-22-9.869-22-22S461.869,2,474,2 M474,0
		c-13.255,0-24,10.745-24,24s10.745,24,24,24c13.256,0,24-10.745,24-24S487.256,0,474,0L474,0z"/>
	<g>
		<path fill="#FFFFFF" d="M465.002,24c-0.002-2.51,1.043-4.409,2.055-5.614l0,0c1.016-1.216,2.002-1.801,2.09-1.856l0,0
			c0.66-0.389,1.51-0.166,1.895,0.498l0,0c0.385,0.662,0.166,1.511-0.488,1.901l0,0h0.002c0,0-0.002,0-0.004,0.001l0,0
			c-0.002,0.001-0.004,0.003-0.008,0.005l0,0c-0.014,0.008-0.039,0.024-0.072,0.047l0,0c-0.068,0.046-0.176,0.122-0.309,0.227l0,0
			c-0.264,0.209-0.627,0.535-0.984,0.964l0,0c-0.719,0.871-1.404,2.106-1.406,3.825l0,0c0,1.733,0.693,3.292,1.824,4.431l0,0
			c1.133,1.137,2.682,1.836,4.404,1.836l0,0c1.723,0,3.271-0.699,4.404-1.836l0,0c1.129-1.139,1.824-2.698,1.824-4.431l0,0
			c-0.004-1.667-0.645-2.875-1.34-3.743l0,0c-0.66-0.823-1.367-1.282-1.438-1.324l0,0c-0.002-0.001-0.002-0.001-0.002-0.001v0
			c-0.002,0-0.002-0.001-0.002-0.001l0,0c-0.002-0.001-0.002-0.001-0.002-0.001l0,0l0,0c-0.654-0.391-0.873-1.24-0.488-1.901l0,0
			c0.387-0.664,1.234-0.887,1.895-0.499l0,0c0.09,0.055,1.076,0.64,2.092,1.856l0,0c1.012,1.206,2.057,3.104,2.055,5.614l0,0
			c-0.002,5-4.029,9.052-8.998,9.054l0,0C469.031,33.052,465.004,29,465.002,24L465.002,24z"/>
		<path fill="#FFFFFF" d="M472.615,23.304v-4.179v-4.178c0-0.769,0.621-1.393,1.385-1.393l0,0c0.764,0,1.383,0.624,1.383,1.393l0,0
			v4.178v4.179h0.002c0,0.768-0.621,1.393-1.385,1.393l0,0C473.236,24.697,472.615,24.072,472.615,23.304L472.615,23.304z"/>
	</g>
</g>
<g>
	<path fill="#FFFFFF" d="M610.002,16c-0.002-1.673,0.695-2.939,1.369-3.743l0,0c0.678-0.81,1.335-1.2,1.395-1.237l0,0
		c0.439-0.259,1.005-0.11,1.262,0.332l0,0c0.258,0.441,0.111,1.007-0.324,1.268l0,0l0,0c0,0-0.001,0-0.002,0.001l0,0
		c-0.002,0-0.004,0.001-0.006,0.003l0,0c-0.009,0.006-0.025,0.017-0.048,0.032l0,0c-0.046,0.031-0.117,0.082-0.206,0.151l0,0
		c-0.176,0.14-0.418,0.356-0.656,0.643l0,0c-0.479,0.581-0.936,1.404-0.938,2.55l0,0c0,1.155,0.463,2.194,1.217,2.954l0,0
		c0.754,0.757,1.787,1.224,2.936,1.224l0,0c1.148,0,2.182-0.467,2.936-1.224l0,0c0.754-0.76,1.217-1.799,1.217-2.954l0,0
		c-0.002-1.111-0.43-1.917-0.893-2.496l0,0c-0.441-0.548-0.912-0.854-0.959-0.883l0,0c0,0-0.001,0-0.002,0l0,0
		c0,0,0-0.001-0.001-0.001l0,0c-0.001,0-0.001,0-0.001,0l0,0l0,0c-0.436-0.26-0.582-0.827-0.324-1.268l0,0
		c0.257-0.443,0.822-0.591,1.262-0.332l0,0c0.06,0.036,0.717,0.426,1.395,1.237l0,0c0.675,0.804,1.371,2.07,1.369,3.743l0,0
		c0,3.333-2.686,6.034-5.998,6.036l0,0C612.688,22.034,610.002,19.333,610.002,16L610.002,16z"/>
	<path fill="#FFFFFF" d="M615.077,15.536V12.75V9.964c0-0.513,0.413-0.929,0.923-0.929l0,0c0.51,0,0.922,0.416,0.922,0.929l0,0
		v2.786v2.786h0.001c0,0.512-0.413,0.928-0.923,0.928l0,0C615.49,16.464,615.077,16.048,615.077,15.536L615.077,15.536z"/>
</g>
<g>
	<path fill="#FFFFFF" d="M666,15.474c-3.312,0-6,2.865-6,6.396c0,1.179,0.895,2.132,2,2.132h8c1.105,0,2-0.953,2-2.132
		C672,18.338,669.312,15.474,666,15.474z"/>
	<path fill="#FFFFFF" d="M669,11.197c0,1.766-1.344,3.198-3,3.198s-3-1.432-3-3.198s1.344-3.198,3-3.198S669,9.431,669,11.197z"/>
</g>
<path fill="#FFFFFF" d="M616,1c8.271,0,15,6.729,15,15s-6.729,15-15,15s-15-6.729-15-15S607.729,1,616,1 M616,0
	c-8.836,0-16,7.164-16,16s7.164,16,16,16s16-7.164,16-16S624.836,0,616,0L616,0z"/>
<path fill="#FFFFFF" d="M666,1c8.271,0,15,6.729,15,15s-6.729,15-15,15s-15-6.729-15-15S657.729,1,666,1 M666,0
	c-8.836,0-16,7.164-16,16s7.164,16,16,16s16-7.164,16-16S674.836,0,666,0L666,0z"/>
<path fill="#FFFFFF" d="M616,32c-8.836,0-16,7.164-16,16s7.164,16,16,16s16-7.164,16-16S624.836,32,616,32z M615.077,44.75v-2.786
	c0-0.513,0.413-0.929,0.923-0.929s0.922,0.416,0.922,0.929v2.786v2.786h0.001c0,0.512-0.413,0.928-0.923,0.928
	s-0.923-0.416-0.923-0.928V44.75z M616,54.036c-3.312-0.002-5.998-2.703-5.998-6.036c-0.002-1.673,0.695-2.939,1.369-3.743
	c0.678-0.81,1.335-1.2,1.395-1.237c0.439-0.259,1.005-0.11,1.262,0.332c0.258,0.441,0.111,1.007-0.324,1.268
	c0,0-0.001,0-0.002,0.001c-0.002,0-0.004,0.001-0.006,0.003c-0.009,0.006-0.025,0.017-0.048,0.032
	c-0.046,0.031-0.117,0.082-0.206,0.151c-0.176,0.14-0.418,0.356-0.656,0.643c-0.479,0.581-0.936,1.404-0.938,2.55
	c0,1.155,0.463,2.194,1.217,2.954c0.754,0.757,1.787,1.224,2.936,1.224s2.182-0.467,2.936-1.224c0.754-0.76,1.217-1.799,1.217-2.954
	c-0.002-1.111-0.43-1.917-0.893-2.496c-0.441-0.548-0.912-0.854-0.959-0.883c0,0-0.001,0-0.002,0c0,0,0-0.001-0.001-0.001
	c-0.001,0-0.001,0-0.001,0c-0.436-0.26-0.582-0.827-0.324-1.268c0.257-0.443,0.822-0.591,1.262-0.332
	c0.06,0.036,0.717,0.426,1.395,1.237c0.675,0.804,1.371,2.07,1.369,3.743C621.998,51.333,619.312,54.034,616,54.036z"/>
<path fill="#FFFFFF" d="M666,32c-8.836,0-16,7.164-16,16s7.164,16,16,16s16-7.164,16-16S674.836,32,666,32z M666,39.999
	c1.656,0,3,1.433,3,3.198s-1.344,3.198-3,3.198s-3-1.432-3-3.198S664.344,39.999,666,39.999z M670,56.001h-8
	c-1.105,0-2-0.953-2-2.132c0-3.531,2.688-6.396,6-6.396s6,2.865,6,6.396C672,55.048,671.105,56.001,670,56.001z"/>
<g>
	<path fill="#FFFFFF" d="M374,2c12.131,0,22,9.869,22,22s-9.869,22-22,22s-22-9.869-22-22S361.869,2,374,2 M374,0
		c-13.255,0-24,10.745-24,24s10.745,24,24,24s24-10.745,24-24S387.255,0,374,0L374,0z"/>
	<path fill="#FFFFFF" d="M374,15c4.963,0,9,4.037,9,9s-4.037,9-9,9s-9-4.037-9-9S369.037,15,374,15 M374,12c-6.627,0-12,5.373-12,12
		s5.373,12,12,12s12-5.373,12-12S380.627,12,374,12L374,12z"/>
	<g>
		<circle fill="#FFFFFF" cx="374" cy="24" r="2"/>
	</g>
	<path fill="#FFFFFF" d="M377,13c0,0.552-0.448,1-1,1h-4c-0.552,0-1-0.448-1-1V9c0-0.552,0.448-1,1-1h4c0.552,0,1,0.448,1,1V13z"/>
	<path fill="#FFFFFF" d="M383.899,18.343c-0.391,0.391-1.023,0.391-1.414,0l-2.829-2.828c-0.39-0.391-0.39-1.023,0-1.414
		l2.829-2.829c0.391-0.39,1.023-0.39,1.414,0l2.829,2.829c0.39,0.391,0.39,1.023,0,1.414L383.899,18.343z"/>
	<path fill="#FFFFFF" d="M375,23c0,0.552-0.448,1-1,1l0,0c-0.552,0-1-0.448-1-1v-5c0-0.552,0.448-1,1-1l0,0c0.552,0,1,0.448,1,1V23z
		"/>
</g>
<g>
	<path fill="#FFFFFF" d="M424,2c12.131,0,22,9.869,22,22s-9.869,22-22,22c-12.13,0-22-9.869-22-22S411.869,2,424,2 M424,0
		c-13.254,0-24,10.745-24,24s10.745,24,24,24c13.255,0,24-10.745,24-24S437.254,0,424,0L424,0z"/>
	<path fill="#FFFFFF" d="M433.292,17.293l-5.585-5.586C427.318,11.318,426.729,11,426,11h-10c-1.104,0-2,0.896-2,2v22
		c0,1.104,0.896,2,2,2h16c1.104,0,2-0.896,2-2c0,0,0-15.865,0-16C434,18.292,433.682,17.682,433.292,17.293z M431,34h-14V14h8v6h6
		V34z"/>
	<path fill="#FFFFFF" d="M421.083,32h-2V18c0-0.552,0.448-1,1-1l0,0c0.552,0,1,0.448,1,1V32z"/>
	<path fill="#FFFFFF" d="M425.083,32h-2v-6c0-0.552,0.448-1,1-1l0,0c0.552,0,1,0.448,1,1V32z"/>
	<path fill="#FFFFFF" d="M429.083,32h-2v-9c0-0.552,0.448-1,1-1l0,0c0.552,0,1,0.448,1,1V32z"/>
</g>
<path fill="#FFFFFF" d="M524,48c-13.254,0-24,10.745-24,24s10.746,24,24,24c13.256,0,24-10.745,24-24S537.256,48,524,48z
	 M524,58.998c2.762,0,5,2.328,5,5.197s-2.238,5.196-5,5.196c-2.76,0-5-2.327-5-5.196S521.24,58.998,524,58.998z M530.666,85.002
	h-13.332c-1.842,0-3.334-1.549-3.334-3.464c0-5.738,4.48-10.393,10-10.393c5.521,0,10,4.655,10,10.393
	C534,83.453,532.51,85.002,530.666,85.002z"/>
<path fill="#FFFFFF" d="M324,48c-13.255,0-24,10.745-24,24s10.745,24,24,24s24-10.745,24-24S337.255,48,324,48z M324.008,60.618
	c3.033,0,5.498,2.471,5.498,5.526c0,3.047-2.465,5.519-5.498,5.519c-3.046,0-5.515-2.472-5.515-5.519
	C318.493,63.089,320.961,60.618,324.008,60.618z M330.97,86.935l-0.894-6.285l-0.194,6.748c-1.83,0.701-3.808,1.103-5.882,1.103
	c-2.074,0-4.052-0.401-5.882-1.103l-0.194-6.748l-0.894,6.285c-1.25-0.585-2.422-1.309-3.478-2.175
	c0.533-3.597,1.063-6.795,1.338-7.358c1.35-2.768,3.442-4.451,8.582-4.451H324h0.527c5.139,0,7.231,1.684,8.582,4.451
	c0.274,0.563,0.805,3.762,1.338,7.358C333.392,85.625,332.219,86.349,330.97,86.935z"/>
<path fill="#FFFFFF" d="M474,48c-13.255,0-24,10.745-24,24s10.745,24,24,24c13.256,0,24-10.745,24-24S487.256,48,474,48z
	 M472.615,67.125v-4.178c0-0.769,0.621-1.393,1.385-1.393s1.383,0.624,1.383,1.393v4.178v4.179h0.002
	c0,0.768-0.621,1.393-1.385,1.393s-1.385-0.625-1.385-1.393V67.125z M474,81.054c-4.969-0.001-8.996-4.054-8.998-9.053
	c-0.002-2.51,1.043-4.409,2.055-5.614c1.016-1.216,2.002-1.801,2.09-1.856c0.66-0.389,1.51-0.166,1.895,0.498
	c0.385,0.662,0.166,1.511-0.488,1.901h0.002c0,0-0.002,0-0.004,0.001s-0.004,0.003-0.008,0.005
	c-0.014,0.008-0.039,0.024-0.072,0.047c-0.068,0.046-0.176,0.122-0.309,0.227c-0.264,0.209-0.627,0.535-0.984,0.964
	c-0.719,0.871-1.404,2.106-1.406,3.825c0,1.733,0.693,3.292,1.824,4.431c1.133,1.137,2.682,1.836,4.404,1.836
	s3.271-0.699,4.404-1.836c1.129-1.139,1.824-2.698,1.824-4.431c-0.004-1.667-0.645-2.875-1.34-3.743
	c-0.66-0.823-1.367-1.282-1.438-1.324c-0.002-0.001-0.002-0.001-0.002-0.001c-0.002-0.001-0.002-0.001-0.002-0.001
	c-0.002-0.001-0.002-0.001-0.002-0.001c-0.654-0.391-0.873-1.24-0.488-1.901c0.387-0.664,1.234-0.887,1.895-0.499
	c0.09,0.055,1.076,0.64,2.092,1.856c1.012,1.206,2.057,3.104,2.055,5.614C482.996,77,478.969,81.052,474,81.054z"/>
<g>
	<path fill="#FFFFFF" d="M374,63c-4.963,0-9,4.037-9,9s4.037,9,9,9s9-4.037,9-9S378.963,63,374,63z M374,74c-1.104,0-2-0.896-2-2
		c0-0.738,0.405-1.376,1-1.723V66c0-0.552,0.448-1,1-1s1,0.448,1,1v4.277c0.595,0.347,1,0.984,1,1.723C376,73.104,375.104,74,374,74
		z"/>
	<path fill="#FFFFFF" d="M374,48c-13.255,0-24,10.745-24,24s10.745,24,24,24s24-10.745,24-24S387.255,48,374,48z M386.728,63.515
		l-2.399,2.399C385.384,67.7,386,69.775,386,72c0,6.627-5.373,12-12,12s-12-5.373-12-12c0-5.589,3.828-10.272,9-11.606V57
		c0-0.552,0.448-1,1-1h4c0.552,0,1,0.448,1,1v3.394c1.098,0.283,2.134,0.715,3.086,1.277l2.399-2.399c0.391-0.39,1.023-0.39,1.414,0
		l2.829,2.829C387.118,62.491,387.118,63.124,386.728,63.515z"/>
</g>
<g>
	<path fill="#FFFFFF" d="M425,62h-8v20h14V68h-6V62z M421.083,80h-2V66c0-0.552,0.448-1,1-1s1,0.448,1,1V80z M427.083,71
		c0-0.552,0.448-1,1-1s1,0.448,1,1v9h-2V71z M425.083,74v6h-2v-6c0-0.552,0.448-1,1-1S425.083,73.448,425.083,74z"/>
	<path fill="#FFFFFF" d="M424,48c-13.254,0-24,10.745-24,24s10.745,24,24,24c13.255,0,24-10.745,24-24S437.254,48,424,48z M434,83
		c0,1.104-0.896,2-2,2h-16c-1.104,0-2-0.896-2-2V61c0-1.104,0.896-2,2-2h10c0.729,0,1.318,0.318,1.708,0.707l5.585,5.586
		C433.682,65.682,434,66.292,434,67C434,67.135,434,83,434,83z"/>
</g>
<polygon fill="#CC99CC" points="550,300 550,301 825,301 825,304 850,304 850,301 850,300 "/>
<g>
	<path fill="#FFFFFF" d="M755,55c0.553,0,1-0.448,1-1v-3c0-0.552-0.447-1-1-1s-1,0.448-1,1v3C754,54.552,754.447,55,755,55z"/>
	<path fill="#FFFFFF" d="M767,55c0.553,0,1-0.448,1-1v-3c0-0.552-0.447-1-1-1s-1,0.448-1,1v3C766,54.552,766.447,55,767,55z"/>
	<rect x="754" y="63" fill="#FFFFFF" width="2" height="2"/>
	<rect x="754" y="66" fill="#FFFFFF" width="2" height="2"/>
	<rect x="754" y="69" fill="#FFFFFF" width="2" height="2"/>
	<rect x="757" y="63" fill="#FFFFFF" width="2" height="2"/>
	<rect x="757" y="66" fill="#FFFFFF" width="2" height="2"/>
	<rect x="757" y="69" fill="#FFFFFF" width="2" height="2"/>
	<rect x="760" y="60" fill="#FFFFFF" width="2" height="2"/>
	<rect x="760" y="63" fill="#FFFFFF" width="2" height="2"/>
	<rect x="760" y="66" fill="#FFFFFF" width="2" height="2"/>
	<rect x="760" y="69" fill="#FFFFFF" width="2" height="2"/>
	<rect x="763" y="60" fill="#FFFFFF" width="2" height="2"/>
	<rect x="763" y="63" fill="#FFFFFF" width="2" height="2"/>
	<rect x="763" y="66" fill="#FFFFFF" width="2" height="2"/>
	<rect x="766" y="60" fill="#FFFFFF" width="2" height="2"/>
	<rect x="766" y="63" fill="#FFFFFF" width="2" height="2"/>
	<rect x="766" y="66" fill="#FFFFFF" width="2" height="2"/>
	<path fill="#FFFFFF" d="M770,53h-1v1c0,1.104-0.896,2-2,2s-2-0.896-2-2v-1h-8v1c0,1.104-0.896,2-2,2s-2-0.896-2-2v-1h-1
		c-1.104,0-2,0.896-2,2v17c0,1.104,0.896,2,2,2h18c1.104,0,2-0.896,2-2V55C772,53.896,771.104,53,770,53z M770,72h-18V58h18V72z"/>
</g>
<g>
	<path fill="#FFFFFF" d="M578,18h-6v-6c0-1.104-0.896-2-2-2s-2,0.896-2,2v6h-6c-1.104,0-2,0.896-2,2s0.896,2,2,2h6v6
		c0,1.104,0.896,2,2,2s2-0.896,2-2v-6h6c1.104,0,2-0.896,2-2S579.104,18,578,18z"/>
	<path fill="#FFFFFF" d="M570,2c9.926,0,18,8.075,18,18s-8.074,18-18,18s-18-8.075-18-18S560.074,2,570,2 M570,0
		c-11.045,0-20,8.955-20,20s8.955,20,20,20c11.046,0,20-8.955,20-20S581.046,0,570,0L570,0z"/>
	<path fill="#FFFFFF" d="M570,40c-11.045,0-20,8.955-20,20c0,11.045,8.955,20,20,20c11.046,0,20-8.955,20-20
		C590,48.955,581.046,40,570,40z M578,62h-6v6c0,1.104-0.896,2-2,2s-2-0.896-2-2v-6h-6c-1.104,0-2-0.896-2-2c0-1.105,0.896-2,2-2h6
		v-6c0-1.105,0.896-2,2-2s2,0.895,2,2v6h6c1.104,0,2,0.895,2,2C580,61.104,579.104,62,578,62z"/>
</g>
<g>
	<g>
		
			<rect x="707.361" y="8.922" transform="matrix(-0.7071 0.7071 -0.7071 -0.7071 1222.4882 -482.8712)" fill="#FFFFFF" width="7.778" height="5.657"/>
		<polygon fill="#FFFFFF" points="706,13 705.5,13.5 705.5,17.5 709.5,17.5 710,17 		"/>
		<path fill="#FFFFFF" d="M717.5,5.499c-1.104-1.104-2.896-1.104-4,0.001l-1,1l4,4l1-1C718.604,8.395,718.604,6.604,717.5,5.499z"/>
	</g>
	<path fill="#FFFFFF" d="M711.5,1c5.789,0,10.5,4.71,10.5,10.5c0,5.789-4.711,10.5-10.5,10.5c-5.79,0-10.5-4.711-10.5-10.5
		C701,5.71,705.71,1,711.5,1 M711.5,0C705.148,0,700,5.148,700,11.5c0,6.351,5.148,11.5,11.5,11.5S723,17.851,723,11.5
		C723,5.148,717.852,0,711.5,0L711.5,0z"/>
	<path fill="#FFFFFF" d="M711.5,23c-6.352,0-11.5,5.148-11.5,11.5c0,6.351,5.148,11.5,11.5,11.5S723,40.851,723,34.5
		C723,28.148,717.852,23,711.5,23z M709.5,40.5h-4v-4L706,36l4,4L709.5,40.5z M710.5,39.5l-4-4L712,30l4,4L710.5,39.5z M717.5,32.5
		l-1,1l-4-4l1-1c1.104-1.105,2.896-1.105,4-0.001C718.604,29.604,718.604,31.395,717.5,32.5z"/>
</g>
<g>
	<path fill="#FFFFFF" d="M761.5,1c5.789,0,10.5,4.71,10.5,10.5c0,5.789-4.711,10.5-10.5,10.5c-5.79,0-10.5-4.711-10.5-10.5
		C751,5.71,755.71,1,761.5,1 M761.5,0C755.148,0,750,5.148,750,11.5c0,6.351,5.148,11.5,11.5,11.5S773,17.851,773,11.5
		C773,5.148,767.852,0,761.5,0L761.5,0z"/>
	<path fill="#FFFFFF" d="M768,8c0-0.553-0.447-1-1-1h-2c0-1.105-0.896-2-2-2h-3c-1.104,0-2,0.895-2,2h-2c-0.553,0-1,0.447-1,1v1h1v7
		c0,1.104,0.896,2,2,2h7c1.104,0,2-0.896,2-2V9h1V8z M760,6.5c0-0.276,0.224-0.5,0.5-0.5h2c0.276,0,0.5,0.224,0.5,0.5V7h-3V6.5z
		 M765,16h-1v-5.5c0-0.276-0.224-0.5-0.5-0.5c-0.275,0-0.5,0.224-0.5,0.5V16h-1v-5.5c0-0.276-0.224-0.5-0.5-0.5
		c-0.275,0-0.5,0.224-0.5,0.5V16h-1v-5.5c0-0.276-0.224-0.5-0.5-0.5c-0.275,0-0.5,0.224-0.5,0.5V16h-1V9h7V16z"/>
	<g>
		<path fill="#FFFFFF" d="M763,29.5c0-0.276-0.224-0.5-0.5-0.5h-2c-0.276,0-0.5,0.224-0.5,0.5V30h3V29.5z"/>
		<path fill="#FFFFFF" d="M758,39h1v-5.5c0-0.276,0.225-0.5,0.5-0.5c0.276,0,0.5,0.224,0.5,0.5V39h1v-5.5c0-0.276,0.225-0.5,0.5-0.5
			c0.276,0,0.5,0.224,0.5,0.5V39h1v-5.5c0-0.276,0.225-0.5,0.5-0.5c0.276,0,0.5,0.224,0.5,0.5V39h1v-7h-7V39z"/>
		<path fill="#FFFFFF" d="M761.5,23c-6.352,0-11.5,5.148-11.5,11.5c0,6.351,5.148,11.5,11.5,11.5S773,40.851,773,34.5
			C773,28.148,767.852,23,761.5,23z M768,32h-1v7c0,1.104-0.896,2-2,2h-7c-1.104,0-2-0.896-2-2v-7h-1v-1c0-0.553,0.447-1,1-1h2
			c0-1.105,0.896-2,2-2h3c1.104,0,2,0.895,2,2h2c0.553,0,1,0.447,1,1V32z"/>
	</g>
</g>
<g>
	<path fill="#FFFFFF" d="M908,1c3.859,0,7,3.14,7,7c0,3.859-3.141,7-7,7c-3.86,0-7-3.141-7-7C901,4.14,904.14,1,908,1 M908,0
		c-4.418,0-8,3.582-8,8s3.582,8,8,8s8-3.582,8-8S912.418,0,908,0L908,0z"/>
	<path fill="#FFFFFF" d="M914.432,8L908,13.433L901.566,8L908,2.566L914.432,8z M908,5c-1.657,0-3,1.343-3,3c0,1.656,1.343,3,3,3
		c1.656,0,3-1.344,3-3C911,6.343,909.656,5,908,5z"/>
</g>
<g>
	<path fill="#FFFFFF" d="M958,1c3.859,0,7,3.14,7,7c0,3.859-3.141,7-7,7c-3.86,0-7-3.141-7-7C951,4.14,954.14,1,958,1 M958,0
		c-4.418,0-8,3.582-8,8s3.582,8,8,8s8-3.582,8-8S962.418,0,958,0L958,0z"/>
	<circle fill="#FFFFFF" cx="957.5" cy="3.5" r="0.5"/>
	<circle fill="#FFFFFF" cx="953.5" cy="3.5" r="0.5"/>
	<circle fill="#FFFFFF" cx="955.5" cy="5.5" r="0.5"/>
	<circle fill="#FFFFFF" cx="957.5" cy="7.5" r="0.5"/>
	<circle fill="#FFFFFF" cx="953.5" cy="7.5" r="0.5"/>
	<g>
		<path fill="#FFFFFF" d="M960,8h6c0-0.692-0.098-1.359-0.263-2H960V8z"/>
		<path fill="#FFFFFF" d="M960,4h4.92c-0.727-1.256-1.781-2.297-3.051-3H960V4z"/>
		<path fill="#FFFFFF" d="M952.721,14c1.409,1.24,3.254,2,5.279,2s3.869-0.76,5.279-2H952.721z"/>
		<path fill="#FFFFFF" d="M950.262,10c0.184,0.71,0.459,1.38,0.816,2h13.842c0.359-0.62,0.635-1.29,0.817-2H950.262z"/>
	</g>
</g>
<g>
	<path fill="#FFFFFF" d="M640.51,129.445c-18.535,0-33.551,14.992-33.551,33.523c0,18.484,15.02,33.477,33.551,33.477
		c18.456,0,33.449-14.992,33.449-33.477C673.963,144.438,658.966,129.445,640.51,129.445z"/>
	<path fill="#FFFFFF" d="M640,102c48.523,0,88,39.478,88,88c0,48.524-39.477,88-88,88s-88-39.476-88-88
		C552,141.478,591.477,102,640,102 M640,100c-49.706,0-90,40.295-90,90c0,49.706,40.294,90,90,90c49.705,0,90-40.294,90-90
		C730,140.295,689.705,100,640,100L640,100z"/>
	<g>
		<path fill="#FFFFFF" d="M695.414,230.288c-8.145-16.696-20.77-26.854-51.771-26.854h-6.363c-31.008,0-43.633,10.158-51.775,26.854
			c-1.191,2.437-3.176,13.066-5.39,26.891c6.188,5.52,13.14,10.2,20.683,13.854l3.006-21.143l0.656,22.814
			C615.362,277.397,627.377,280,640,280c12.982,0,25.322-2.754,36.471-7.702l0.645-22.411l2.945,20.721
			c7.537-3.753,14.473-8.526,20.625-14.147C698.519,242.987,696.582,232.684,695.414,230.288z"/>
	</g>
</g>
<g>
	<path fill="#FFFFFF" d="M767,243c0,1.104-0.896,2-2,2h-13c-1.105,0-2-0.896-2-2v-41c0-1.104,0.895-2,2-2h13c1.104,0,2,0.896,2,2
		V243z"/>
	<path fill="#FFFFFF" d="M795,243c0,1.104-0.896,2-2,2h-13c-1.105,0-2-0.896-2-2v-41c0-1.104,0.895-2,2-2h13c1.104,0,2,0.896,2,2
		V243z"/>
</g>
<g>
	<path fill="#FFFFFF" d="M51.242,16.143l9.909,24.011c0.322,0.694,1.107,1.041,2.356,1.041c1.208,0,1.973-0.347,2.296-1.041
		l9.909-24.011c0.16-0.309,0.242-0.617,0.242-0.926c0-0.54-0.383-1.021-1.148-1.446c-0.766-0.424-1.471-0.637-2.115-0.637
		c-0.766,0-1.31,0.386-1.631,1.157l-7.552,19.44L55.833,14.06c-0.242-0.616-0.786-0.926-1.631-0.926
		c-0.725,0-1.44,0.212-2.145,0.637C51.352,14.195,51,14.677,51,15.217C51,15.371,51.08,15.68,51.242,16.143L51.242,16.143z"/>
	<path fill="#FFFFFF" d="M82.901,38.041c2.497,2.064,5.719,3.096,9.667,3.096c2.698,0,4.964-0.463,6.797-1.389
		c1.832-0.926,2.749-1.832,2.749-2.719c0-0.501-0.202-0.993-0.604-1.476c-0.403-0.482-0.886-0.724-1.45-0.724
		c-0.363,0-0.846,0.184-1.45,0.55c-0.604,0.367-1.4,0.743-2.387,1.128c-0.987,0.387-2.145,0.579-3.474,0.579
		c-2.538,0-4.603-0.637-6.193-1.909c-1.591-1.273-2.386-2.97-2.386-5.092V28.35h13.231c0.846,0,1.52-0.039,2.024-0.117
		c0.503-0.077,1.047-0.264,1.632-0.557c0.583-0.293,1.017-0.78,1.299-1.464c0.281-0.683,0.423-1.591,0.423-2.723
		c0-3.03-1.148-5.552-3.444-7.566c-2.296-2.015-5.015-3.021-8.157-3.021c-3.303,0-6.132,1.081-8.489,3.24
		c-2.356,2.161-3.535,4.725-3.535,7.695v6.075C79.155,33.268,80.403,35.979,82.901,38.041z M84.17,22.97
		c0-1.774,0.684-3.269,2.054-4.484c1.369-1.215,3-1.822,4.894-1.822c1.934,0,3.565,0.656,4.894,1.967
		c1.33,1.312,1.994,2.835,1.994,4.571c0,0.733-0.182,1.225-0.544,1.475c-0.362,0.251-1.068,0.376-2.115,0.376H84.17V22.97z"/>
	<path fill="#FFFFFF" d="M109.062,40.153c0.483,0.347,1.067,0.521,1.752,0.521c0.684,0,1.278-0.183,1.782-0.548
		c0.503-0.365,0.755-0.761,0.755-1.184V25.784c0-2.5,0.765-4.54,2.296-6.118c1.53-1.577,3.323-2.366,5.377-2.366h2.054
		c0.523,0,0.977-0.214,1.359-0.645c0.383-0.43,0.574-0.938,0.574-1.524s-0.191-1.104-0.574-1.554
		c-0.383-0.45-0.836-0.675-1.359-0.675h-2.054c-1.732,0-3.304,0.469-4.713,1.406c-1.411,0.937-2.478,2.068-3.202,3.396v-2.754
		c0-0.508-0.222-0.918-0.665-1.23c-0.444-0.312-0.988-0.469-1.631-0.469c-0.725,0-1.32,0.155-1.783,0.463
		c-0.463,0.309-0.695,0.714-0.695,1.215v24.01C108.337,39.4,108.579,39.806,109.062,40.153z"/>
	<path fill="#FFFFFF" d="M138.365,40.674h1.389c0.282,0,0.523-0.105,0.726-0.318c0.201-0.211,0.302-0.453,0.302-0.723
		s-0.101-0.501-0.302-0.695c-0.202-0.191-0.443-0.289-0.726-0.289h-1.389c-2.457,0-4.189-0.453-5.196-1.359
		s-1.511-2.459-1.511-4.657V15.39h8.156c0.281,0,0.523-0.096,0.726-0.289c0.201-0.193,0.302-0.424,0.302-0.694
		c0-0.27-0.101-0.511-0.302-0.723c-0.202-0.212-0.444-0.318-0.726-0.318h-8.156V0.984c0-0.27-0.111-0.501-0.332-0.694
		C131.104,0.097,130.852,0,130.57,0c-0.241,0-0.473,0.097-0.694,0.29c-0.222,0.193-0.332,0.425-0.332,0.694v31.648
		C129.544,37.993,132.483,40.674,138.365,40.674L138.365,40.674z"/>
	<path fill="#FFFFFF" d="M147.125,4.34c0.523,0,0.967-0.183,1.329-0.55c0.362-0.366,0.544-0.8,0.544-1.302
		c0-0.501-0.182-0.926-0.544-1.273s-0.806-0.521-1.329-0.521s-0.977,0.174-1.359,0.521s-0.574,0.772-0.574,1.273
		c0,0.501,0.191,0.936,0.574,1.302C146.148,4.157,146.602,4.34,147.125,4.34z M146.4,40.355c0.201,0.213,0.442,0.318,0.725,0.318
		c0.281,0,0.533-0.105,0.756-0.318c0.221-0.211,0.332-0.453,0.332-0.723V14.349c0-0.655-0.363-0.983-1.088-0.983
		c-0.282,0-0.523,0.097-0.725,0.289c-0.203,0.194-0.303,0.425-0.303,0.694v25.284C146.098,39.902,146.197,40.145,146.4,40.355z"/>
	<path fill="#FFFFFF" d="M156.73,40.355c0.201,0.213,0.443,0.318,0.726,0.318c0.281,0,0.533-0.105,0.755-0.318
		c0.221-0.211,0.332-0.453,0.332-0.723v-16.2c0-2.507,0.836-4.532,2.508-6.075c1.671-1.542,3.596-2.314,5.77-2.314
		c2.297,0,4.3,0.859,6.012,2.575c1.712,1.717,2.568,3.655,2.568,5.815v16.2c0,0.693,0.342,1.041,1.027,1.041
		c0.725,0,1.088-0.348,1.088-1.041v-16.2c0-2.854-1.068-5.303-3.203-7.348c-2.135-2.044-4.692-3.066-7.673-3.066
		c-3.665,0-6.364,1.466-8.097,4.397v-3.066c0-0.655-0.361-0.983-1.087-0.983c-0.686,0-1.027,0.328-1.027,0.983v25.284
		C156.429,39.902,156.529,40.145,156.73,40.355z"/>
	<path fill="#FFFFFF" d="M182.106,14.349l9.667,25.573l-1.088,2.951c-0.201,0.5-0.574,1.388-1.117,2.66
		c-0.544,1.273-1.008,2.199-1.39,2.777c-0.384,0.579-0.856,1.244-1.42,1.996c-0.564,0.753-1.169,1.282-1.812,1.592
		c-0.646,0.309-1.31,0.463-1.994,0.463c-0.604,0-0.906,0.347-0.906,1.041c0,0.27,0.101,0.501,0.302,0.694
		c0.201,0.192,0.443,0.289,0.726,0.289c0.886,0,1.731-0.202,2.538-0.607c0.805-0.405,1.561-1.052,2.266-1.938
		c0.703-0.887,1.308-1.697,1.812-2.43c0.503-0.732,1.066-1.813,1.691-3.24c0.624-1.428,1.057-2.449,1.299-3.066l1.209-3.182
		l9.666-25.573c0.04-0.077,0.061-0.192,0.061-0.347c0-0.656-0.362-0.984-1.088-0.984c-0.443,0-0.766,0.212-0.966,0.636l-8.7,23.143
		L184.1,13.654c-0.12-0.424-0.443-0.636-0.967-0.636c-0.322,0-0.594,0.097-0.814,0.29c-0.223,0.193-0.333,0.425-0.333,0.694
		C181.985,14.08,182.025,14.195,182.106,14.349L182.106,14.349z"/>
	<path fill-rule="evenodd" clip-rule="evenodd" fill="#FFFFFF" d="M24,40c-7.732,0-14-6.268-14-14c0-7.731,6.268-14,14-14
		s14,6.269,14,14C38,33.732,31.732,40,24,40z M32.29,22.493c-0.524,0.315-1.133,0.508-1.79,0.508c-1.933,0-3.5-1.567-3.5-3.5
		c0-0.657,0.192-1.266,0.507-1.791C26.43,17.253,25.244,17,24,17c-4.971,0-9,4.03-9,9c0,4.971,4.029,9,9,9s9-4.029,9-9
		C33,24.756,32.747,23.57,32.29,22.493z"/>
	<path fill="#FFFFFF" d="M24,4c12.13,0,22,9.869,22,22c0,12.131-9.869,22-22,22C11.869,48,2,38.131,2,26C2,13.869,11.869,4,24,4
		 M24,2C10.746,2,0,12.745,0,26c0,13.255,10.746,24,24,24s24-10.745,24-24C48,12.745,37.255,2,24,2L24,2z"/>
</g>
<g>
	<path fill-rule="evenodd" clip-rule="evenodd" fill="#FFFFFF" d="M274,38c-7.732,0-14-6.268-14-14c0-7.731,6.268-14,14-14
		s14,6.269,14,14C288,31.732,281.732,38,274,38z M282.29,20.493c-0.524,0.315-1.133,0.508-1.79,0.508c-1.933,0-3.5-1.567-3.5-3.5
		c0-0.657,0.192-1.266,0.507-1.791C276.43,15.253,275.244,15,274,15c-4.971,0-9,4.03-9,9c0,4.971,4.029,9,9,9s9-4.029,9-9
		C283,22.756,282.747,21.57,282.29,20.493z"/>
	<path fill="#FFFFFF" d="M274,2c12.13,0,22,9.869,22,22c0,12.131-9.869,22-22,22c-12.131,0-22-9.869-22-22
		C252,11.869,261.869,2,274,2 M274,0c-13.255,0-24,10.745-24,24c0,13.255,10.746,24,24,24s24-10.745,24-24
		C298,10.745,287.255,0,274,0L274,0z"/>
</g>
<g>
	<g>
		<path fill="#FFFFFF" d="M806,1.458c2.756,0,5,2.243,5,5c0,2.756-2.244,5-5,5c-2.758,0-5-2.244-5-5
			C801,3.701,803.242,1.458,806,1.458 M806,0.458c-3.312,0-6,2.687-6,6s2.688,6,6,6s6-2.687,6-6S809.312,0.458,806,0.458L806,0.458z
			"/>
		<path fill-rule="evenodd" clip-rule="evenodd" fill="#FFFFFF" d="M806,2.708c-2.07,0-3.75,1.678-3.75,3.75
			c0,2.071,1.68,3.75,3.75,3.75s3.75-1.679,3.75-3.75C809.75,4.386,808.07,2.708,806,2.708z M805.998,8.708
			c-1.242,0-2.248-1.009-2.248-2.251c0-1.241,1.006-2.249,2.248-2.249c0.033,0,0.064,0.008,0.096,0.01
			c-0.191,0.594-0.061,1.27,0.412,1.741c0.471,0.47,1.143,0.603,1.734,0.413c0.002,0.028,0.01,0.056,0.01,0.085
			C808.25,7.699,807.242,8.708,805.998,8.708z"/>
	</g>
	<g>
		<path fill="#FFFFFF" d="M812.762,4.007l2.459,5.96c0.079,0.172,0.274,0.259,0.584,0.259c0.301,0,0.49-0.086,0.57-0.259l2.46-5.96
			c0.04-0.076,0.061-0.152,0.061-0.229c0-0.134-0.095-0.253-0.286-0.359c-0.189-0.105-0.365-0.158-0.525-0.158
			c-0.189,0-0.324,0.096-0.405,0.287l-1.874,4.825l-1.903-4.883c-0.06-0.152-0.196-0.229-0.405-0.229
			c-0.18,0-0.358,0.053-0.532,0.158c-0.175,0.105-0.263,0.225-0.263,0.359C812.701,3.816,812.72,3.892,812.762,4.007L812.762,4.007z
			"/>
		<path fill="#FFFFFF" d="M820.619,9.442c0.619,0.513,1.42,0.769,2.4,0.769c0.669,0,1.232-0.115,1.688-0.345
			c0.454-0.229,0.684-0.454,0.684-0.674c0-0.125-0.051-0.247-0.151-0.366c-0.101-0.12-0.22-0.181-0.36-0.181
			c-0.09,0-0.21,0.045-0.359,0.137c-0.15,0.091-0.348,0.185-0.594,0.28c-0.244,0.096-0.531,0.144-0.861,0.144
			c-0.629,0-1.143-0.158-1.538-0.475c-0.394-0.315-0.593-0.736-0.593-1.263V7.037h3.284c0.211,0,0.38-0.009,0.503-0.029
			c0.124-0.019,0.26-0.065,0.406-0.138c0.144-0.073,0.251-0.193,0.322-0.363c0.07-0.17,0.104-0.396,0.104-0.676
			c0-0.752-0.284-1.378-0.854-1.879c-0.57-0.499-1.246-0.75-2.025-0.75c-0.818,0-1.521,0.268-2.107,0.805
			c-0.584,0.536-0.877,1.173-0.877,1.91v1.508C819.689,8.258,819.999,8.932,820.619,9.442z M820.934,5.702
			c0-0.441,0.171-0.812,0.51-1.113c0.34-0.302,0.746-0.453,1.215-0.453c0.48,0,0.887,0.163,1.215,0.488
			c0.33,0.326,0.496,0.704,0.496,1.135c0,0.183-0.046,0.305-0.137,0.366c-0.088,0.063-0.264,0.094-0.522,0.094h-2.776V5.702z"/>
		<path fill="#FFFFFF" d="M827.112,9.967c0.122,0.086,0.266,0.129,0.437,0.129c0.169,0,0.316-0.045,0.441-0.136
			c0.126-0.09,0.189-0.189,0.189-0.293V6.4c0-0.621,0.188-1.127,0.567-1.519c0.382-0.392,0.825-0.588,1.337-0.588h0.509
			c0.131,0,0.243-0.053,0.337-0.16c0.095-0.106,0.144-0.232,0.144-0.378s-0.049-0.273-0.144-0.386
			c-0.094-0.112-0.206-0.168-0.337-0.168h-0.509c-0.431,0-0.822,0.117-1.171,0.349c-0.351,0.233-0.615,0.513-0.795,0.843V3.711
			c0-0.127-0.055-0.228-0.165-0.306c-0.109-0.077-0.244-0.116-0.404-0.116c-0.182,0-0.327,0.038-0.443,0.115
			c-0.115,0.076-0.172,0.177-0.172,0.301v5.96C826.934,9.78,826.994,9.881,827.112,9.967z"/>
		<path fill="#FFFFFF" d="M834.387,10.096h0.346c0.07,0,0.129-0.025,0.18-0.079c0.049-0.052,0.076-0.112,0.076-0.179
			s-0.027-0.125-0.076-0.172c-0.051-0.048-0.109-0.072-0.18-0.072h-0.346c-0.609,0-1.039-0.113-1.289-0.338s-0.375-0.61-0.375-1.156
			V3.82h2.023c0.071,0,0.131-0.024,0.181-0.072c0.049-0.048,0.075-0.104,0.075-0.172c0-0.066-0.026-0.126-0.075-0.179
			c-0.05-0.053-0.109-0.079-0.181-0.079h-2.023V0.244c0-0.066-0.027-0.125-0.084-0.172C832.584,0.024,832.521,0,832.453,0
			c-0.062,0-0.118,0.024-0.174,0.072c-0.055,0.047-0.082,0.105-0.082,0.172V8.1C832.197,9.431,832.928,10.096,834.387,10.096
			L834.387,10.096z"/>
		<path fill="#FFFFFF" d="M836.562,1.077c0.13,0,0.239-0.045,0.329-0.136c0.091-0.091,0.136-0.199,0.136-0.324
			c0-0.123-0.045-0.23-0.136-0.315c-0.09-0.086-0.199-0.129-0.329-0.129s-0.243,0.043-0.339,0.129
			c-0.094,0.085-0.142,0.192-0.142,0.315c0,0.125,0.048,0.232,0.142,0.324C836.318,1.032,836.432,1.077,836.562,1.077z
			 M836.381,10.017c0.051,0.054,0.111,0.079,0.181,0.079s0.132-0.025,0.188-0.079c0.053-0.052,0.082-0.112,0.082-0.179V3.562
			c0-0.163-0.092-0.244-0.271-0.244c-0.069,0-0.13,0.024-0.181,0.072s-0.074,0.105-0.074,0.172v6.276
			C836.307,9.905,836.33,9.965,836.381,10.017z"/>
		<path fill="#FFFFFF" d="M838.945,10.017c0.051,0.054,0.111,0.079,0.18,0.079c0.071,0,0.135-0.025,0.189-0.079
			c0.053-0.052,0.082-0.112,0.082-0.179V5.817c0-0.623,0.207-1.125,0.621-1.509c0.416-0.382,0.893-0.574,1.434-0.574
			c0.568,0,1.065,0.214,1.491,0.639c0.425,0.427,0.638,0.907,0.638,1.444v4.021c0,0.172,0.084,0.258,0.255,0.258
			c0.181,0,0.271-0.085,0.271-0.258V5.817c0-0.708-0.264-1.316-0.796-1.825c-0.529-0.507-1.164-0.761-1.904-0.761
			c-0.909,0-1.58,0.364-2.009,1.092V3.562c0-0.163-0.09-0.244-0.271-0.244c-0.17,0-0.254,0.081-0.254,0.244v6.276
			C838.871,9.905,838.895,9.965,838.945,10.017z"/>
		<path fill="#FFFFFF" d="M845.244,3.562l2.4,6.348l-0.27,0.733c-0.049,0.125-0.143,0.345-0.279,0.66
			c-0.135,0.316-0.248,0.545-0.344,0.689c-0.096,0.145-0.213,0.309-0.352,0.496c-0.142,0.187-0.291,0.318-0.451,0.395
			s-0.325,0.115-0.494,0.115c-0.149,0-0.227,0.086-0.227,0.259c0,0.067,0.026,0.124,0.077,0.173c0.05,0.047,0.109,0.071,0.179,0.071
			c0.221,0,0.43-0.05,0.631-0.15c0.198-0.102,0.387-0.262,0.562-0.481c0.175-0.22,0.324-0.422,0.45-0.604
			c0.125-0.182,0.266-0.45,0.42-0.804c0.154-0.354,0.263-0.608,0.322-0.761l0.301-0.79l2.398-6.348
			c0.01-0.02,0.015-0.048,0.015-0.086c0-0.163-0.089-0.245-0.269-0.245c-0.111,0-0.189,0.053-0.242,0.158l-2.157,5.744l-2.175-5.744
			c-0.031-0.105-0.112-0.158-0.241-0.158c-0.08,0-0.147,0.024-0.202,0.072c-0.055,0.048-0.082,0.106-0.082,0.173
			C845.215,3.495,845.226,3.524,845.244,3.562L845.244,3.562z"/>
	</g>
</g>
</svg>
