<?xml version="1.0" encoding="utf-8"?>
<!-- Generator: Adobe Illustrator 16.0.0, SVG Export Plug-In . SVG Version: 6.00 Build 0)  -->
<!DOCTYPE svg PUBLIC "-//W3C//DTD SVG 1.1//EN" "http://www.w3.org/Graphics/SVG/1.1/DTD/svg11.dtd">
<svg version="1.1" id="Layer_1" xmlns="http://www.w3.org/2000/svg" xmlns:xlink="http://www.w3.org/1999/xlink" x="0px" y="0px"
	 width="40px" height="40px" viewBox="0 0 40 40" enable-background="new 0 0 40 40" xml:space="preserve">
<g>
	<g>
		<path fill="#665166" d="M27.424,28.369c-1.982,1.982-4.619,3.076-7.425,3.076c-5.79,0-10.5-4.711-10.5-10.5
			c0-2.056,0.597-4.049,1.724-5.762c-10,10-10,10-10,10h5.445c1.802,5.649,7.09,9.762,13.331,9.762c3.739,0,7.257-1.457,9.899-4.104
			L27.424,28.369z"/>
		<path fill="#665166" d="M12.574,13.52c1.983-1.982,4.621-3.074,7.426-3.074c5.789,0,10.5,4.71,10.5,10.5
			c0,2.057-0.596,4.049-1.723,5.763c10-10,10-10,10-10H33.33C31.529,11.055,26.24,6.945,20,6.945c-3.74,0-7.256,1.456-9.9,4.1
			L12.574,13.52z"/>
	</g>
</g>
</svg>
