<?xml version="1.0" encoding="utf-8"?>
<!-- Generator: Adobe Illustrator 16.0.0, SVG Export Plug-In . SVG Version: 6.00 Build 0)  -->
<!DOCTYPE svg PUBLIC "-//W3C//DTD SVG 1.1//EN" "http://www.w3.org/Graphics/SVG/1.1/DTD/svg11.dtd">
<svg version="1.1" id="Layer_1" xmlns="http://www.w3.org/2000/svg" xmlns:xlink="http://www.w3.org/1999/xlink" x="0px" y="0px"
	 width="190px" height="190px" viewBox="0 0 190 190" enable-background="new 0 0 190 190" xml:space="preserve">
<g>
	<path fill="#665166" d="M49.236,49.538C61,37.775,77.25,30.5,95.199,30.5c35.898,0,65,29.102,65,65
		c0,13.176-3.934,25.428-10.67,35.67l35.67-35.67h-15c0-41.422-33.578-75-75-75c-20.711,0-39.461,8.395-53.033,21.967L49.236,49.538
		z"/>
	<path fill="#665166" d="M141.16,141.461c-11.762,11.764-28.012,19.039-45.961,19.039c-35.898,0-65-29.102-65-65
		c0-13.176,3.932-25.429,10.67-35.67L5.199,95.5h15c0,41.422,33.578,75,75,75c20.711,0,39.461-8.395,53.033-21.967L141.16,141.461z"
		/>
</g>
</svg>
