<?xml version="1.0" encoding="utf-8"?>
<!-- Generator: Adobe Illustrator 16.0.0, SVG Export Plug-In . SVG Version: 6.00 Build 0)  -->
<!DOCTYPE svg PUBLIC "-//W3C//DTD SVG 1.1//EN" "http://www.w3.org/Graphics/SVG/1.1/DTD/svg11.dtd">
<svg version="1.1" id="Layer_1" xmlns="http://www.w3.org/2000/svg" xmlns:xlink="http://www.w3.org/1999/xlink" x="0px" y="0px"
	 width="40px" height="40px" viewBox="0 0 40 40" enable-background="new 0 0 40 40" xml:space="preserve">
<path fill="#665166" d="M20,7c7.168,0,13,5.832,13,13c0,7.168-5.832,13-13,13c-7.168,0-13-5.832-13-13C7,12.832,12.832,7,20,7 M20,5
	C11.716,5,5,11.716,5,20s6.716,15,15,15c8.285,0,15-6.716,15-15S28.285,5,20,5L20,5z"/>
<g>
	<path fill="#665166" d="M20,27.535l-9.248-9.248c-0.977-0.976-0.977-2.559,0-3.535c0.976-0.977,2.56-0.977,3.535,0L20,20.464
		l13.49-13.49c0.976-0.977,2.56-0.977,3.535,0c0.977,0.976,0.977,2.559,0,3.535L20,27.535z"/>
</g>
<g>
</g>
<g>
</g>
<g>
</g>
<g>
</g>
<g>
</g>
<g>
</g>
</svg>
